<svg width="797" height="797" viewBox="0 0 797 797" fill="none" xmlns="http://www.w3.org/2000/svg">
<rect width="797" height="797" rx="398.5" fill="#F5F5F5"/>
<path d="M338.76 236.613C310.844 236.613 288.185 259.273 288.185 287.188H308.415C308.415 270.498 322.069 256.843 338.76 256.843C355.45 256.843 369.105 270.498 369.105 287.188H389.335C389.335 259.273 366.675 236.613 338.76 236.613Z" fill="#0B9B8A"/>
<path d="M460.139 236.613C432.224 236.613 409.564 259.273 409.564 287.188H429.794C429.794 270.498 443.449 256.843 460.139 256.843C476.83 256.843 490.484 270.498 490.484 287.188H510.714C510.714 259.273 488.055 236.613 460.139 236.613Z" fill="#0B9B8A"/>
<path d="M662.44 449.028C640.087 449.028 621.98 467.135 621.98 489.488C621.98 493.534 622.788 497.377 623.904 501.021L561.29 563.53V448.928C561.29 443.365 556.738 438.813 551.175 438.813H429.795V408.468H520.83C537.52 408.468 551.175 394.813 551.175 378.123V337.663H591.635C608.424 337.663 621.98 324.107 621.98 307.318C621.98 290.529 608.424 276.973 591.635 276.973V153.87C603.366 149.725 611.865 138.599 611.865 125.345C611.865 108.556 598.309 95 581.52 95C564.731 95 551.175 108.556 551.175 125.345C551.175 138.495 559.673 149.621 571.405 153.87V277.065H551.175V216.375C551.175 199.685 537.52 186.03 520.83 186.03H278.07C261.38 186.03 247.725 199.685 247.725 216.375V277.065H207.265C190.476 277.065 176.92 290.622 176.92 307.41C176.92 324.199 190.476 337.755 207.265 337.755H247.725V378.215C247.725 394.906 261.38 408.56 278.07 408.56H369.105V438.905H247.725C242.162 438.905 237.61 443.457 237.61 449.02V563.623L174.996 501.113C176.107 497.474 176.92 493.626 176.92 489.58C176.92 467.228 158.812 449.12 136.46 449.12C114.108 449.12 96 467.228 96 489.58C96 511.933 114.108 530.04 136.46 530.04C139.594 530.04 142.628 529.634 145.663 528.929L237.61 620.877V691.885C237.61 697.448 242.162 702 247.725 702H551.175C556.738 702 561.29 697.448 561.29 691.885V620.877L653.237 528.929C656.172 529.638 659.207 530.04 662.44 530.04C684.792 530.04 702.9 511.933 702.9 489.58C702.9 467.228 684.792 449.12 662.44 449.12V449.028ZM278.07 388.338C272.507 388.338 267.955 383.786 267.955 378.223V216.383C267.955 210.82 272.507 206.268 278.07 206.268H520.83C526.393 206.268 530.945 210.82 530.945 216.383V378.223C530.945 383.786 526.393 388.338 520.83 388.338H278.07ZM480.37 595.701H424.737V651.334H374.162V595.701H318.53V545.126H374.162V489.494H424.737V545.126H480.37V595.701Z" fill="#0B9B8A"/>
</svg>
